<svg xmlns="http://www.w3.org/2000/svg" viewBox="0 0 1230.00 374.60">
  <style>
    .key-bg { fill: #f5f5f5; stroke: #d4d4d4; stroke-width: 1; }
    .key-index { fill: #171717; font-family: ui-monospace, SFMono-Regular, "SF Mono", Menlo, Consolas, "Liberation Mono", monospace; font-weight: 700; text-anchor: middle; dominant-baseline: central; }
    .key-part { font-family: system-ui, -apple-system, BlinkMacSystemFont, "Segoe UI", Roboto, sans-serif; text-anchor: middle; dominant-baseline: central; }
    @media (prefers-color-scheme: dark) {
      .key-bg { fill: #2a2a2a; stroke: #404040; }
      .key-index { fill: #e5e5e5; }
    }
    .key-bg.part-0 { stroke: #f59e0b; }
    .key-part.part-0 { fill: #f59e0b; }
    .key-bg.part-1 { stroke: #14b8a6; }
    .key-part.part-1 { fill: #14b8a6; }
  </style>
  <g>
    <path class="key-bg part-0" d="M 26.00,47.90 L 84.00,47.90 Q 88.00,47.90 88.00,51.90 L 88.00,109.90 Q 88.00,113.90 84.00,113.90 L 26.00,113.90 Q 22.00,113.90 22.00,109.90 L 22.00,51.90 Q 22.00,47.90 26.00,47.90 Z" />
    <path class="key-bg part-0" d="M 96.00,30.40 L 154.00,30.40 Q 158.00,30.40 158.00,34.40 L 158.00,92.40 Q 158.00,96.40 154.00,96.40 L 96.00,96.40 Q 92.00,96.40 92.00,92.40 L 92.00,34.40 Q 92.00,30.40 96.00,30.40 Z" />
    <path class="key-bg part-0" d="M 166.00,22.00 L 224.00,22.00 Q 228.00,22.00 228.00,26.00 L 228.00,84.00 Q 228.00,88.00 224.00,88.00 L 166.00,88.00 Q 162.00,88.00 162.00,84.00 L 162.00,26.00 Q 162.00,22.00 166.00,22.00 Z" />
    <path class="key-bg part-0" d="M 236.00,30.40 L 294.00,30.40 Q 298.00,30.40 298.00,34.40 L 298.00,92.40 Q 298.00,96.40 294.00,96.40 L 236.00,96.40 Q 232.00,96.40 232.00,92.40 L 232.00,34.40 Q 232.00,30.40 236.00,30.40 Z" />
    <path class="key-bg part-0" d="M 306.00,38.80 L 364.00,38.80 Q 368.00,38.80 368.00,42.80 L 368.00,100.80 Q 368.00,104.80 364.00,104.80 L 306.00,104.80 Q 302.00,104.80 302.00,100.80 L 302.00,42.80 Q 302.00,38.80 306.00,38.80 Z" />
    <path class="key-bg part-0" d="M 516.00,38.80 L 574.00,38.80 Q 578.00,38.80 578.00,42.80 L 578.00,100.80 Q 578.00,104.80 574.00,104.80 L 516.00,104.80 Q 512.00,104.80 512.00,100.80 L 512.00,42.80 Q 512.00,38.80 516.00,38.80 Z" />
    <path class="key-bg part-0" d="M 586.00,30.40 L 644.00,30.40 Q 648.00,30.40 648.00,34.40 L 648.00,92.40 Q 648.00,96.40 644.00,96.40 L 586.00,96.40 Q 582.00,96.40 582.00,92.40 L 582.00,34.40 Q 582.00,30.40 586.00,30.40 Z" />
    <path class="key-bg part-0" d="M 656.00,22.00 L 714.00,22.00 Q 718.00,22.00 718.00,26.00 L 718.00,84.00 Q 718.00,88.00 714.00,88.00 L 656.00,88.00 Q 652.00,88.00 652.00,84.00 L 652.00,26.00 Q 652.00,22.00 656.00,22.00 Z" />
    <path class="key-bg part-0" d="M 726.00,30.40 L 784.00,30.40 Q 788.00,30.40 788.00,34.40 L 788.00,92.40 Q 788.00,96.40 784.00,96.40 L 726.00,96.40 Q 722.00,96.40 722.00,92.40 L 722.00,34.40 Q 722.00,30.40 726.00,30.40 Z" />
    <path class="key-bg part-0" d="M 796.00,47.90 L 854.00,47.90 Q 858.00,47.90 858.00,51.90 L 858.00,109.90 Q 858.00,113.90 854.00,113.90 L 796.00,113.90 Q 792.00,113.90 792.00,109.90 L 792.00,51.90 Q 792.00,47.90 796.00,47.90 Z" />
    <path class="key-bg part-0" d="M 26.00,117.90 L 84.00,117.90 Q 88.00,117.90 88.00,121.90 L 88.00,179.90 Q 88.00,183.90 84.00,183.90 L 26.00,183.90 Q 22.00,183.90 22.00,179.90 L 22.00,121.90 Q 22.00,117.90 26.00,117.90 Z" />
    <path class="key-bg part-0" d="M 96.00,100.40 L 154.00,100.40 Q 158.00,100.40 158.00,104.40 L 158.00,162.40 Q 158.00,166.40 154.00,166.40 L 96.00,166.40 Q 92.00,166.40 92.00,162.40 L 92.00,104.40 Q 92.00,100.40 96.00,100.40 Z" />
    <path class="key-bg part-0" d="M 166.00,92.00 L 224.00,92.00 Q 228.00,92.00 228.00,96.00 L 228.00,154.00 Q 228.00,158.00 224.00,158.00 L 166.00,158.00 Q 162.00,158.00 162.00,154.00 L 162.00,96.00 Q 162.00,92.00 166.00,92.00 Z" />
    <path class="key-bg part-0" d="M 236.00,100.40 L 294.00,100.40 Q 298.00,100.40 298.00,104.40 L 298.00,162.40 Q 298.00,166.40 294.00,166.40 L 236.00,166.40 Q 232.00,166.40 232.00,162.40 L 232.00,104.40 Q 232.00,100.40 236.00,100.40 Z" />
    <path class="key-bg part-0" d="M 306.00,108.80 L 364.00,108.80 Q 368.00,108.80 368.00,112.80 L 368.00,170.80 Q 368.00,174.80 364.00,174.80 L 306.00,174.80 Q 302.00,174.80 302.00,170.80 L 302.00,112.80 Q 302.00,108.80 306.00,108.80 Z" />
    <path class="key-bg part-0" d="M 516.00,108.80 L 574.00,108.80 Q 578.00,108.80 578.00,112.80 L 578.00,170.80 Q 578.00,174.80 574.00,174.80 L 516.00,174.80 Q 512.00,174.80 512.00,170.80 L 512.00,112.80 Q 512.00,108.80 516.00,108.80 Z" />
    <path class="key-bg part-0" d="M 586.00,100.40 L 644.00,100.40 Q 648.00,100.40 648.00,104.40 L 648.00,162.40 Q 648.00,166.40 644.00,166.40 L 586.00,166.40 Q 582.00,166.40 582.00,162.40 L 582.00,104.40 Q 582.00,100.40 586.00,100.40 Z" />
    <path class="key-bg part-0" d="M 656.00,92.00 L 714.00,92.00 Q 718.00,92.00 718.00,96.00 L 718.00,154.00 Q 718.00,158.00 714.00,158.00 L 656.00,158.00 Q 652.00,158.00 652.00,154.00 L 652.00,96.00 Q 652.00,92.00 656.00,92.00 Z" />
    <path class="key-bg part-0" d="M 726.00,100.40 L 784.00,100.40 Q 788.00,100.40 788.00,104.40 L 788.00,162.40 Q 788.00,166.40 784.00,166.40 L 726.00,166.40 Q 722.00,166.40 722.00,162.40 L 722.00,104.40 Q 722.00,100.40 726.00,100.40 Z" />
    <path class="key-bg part-0" d="M 796.00,117.90 L 854.00,117.90 Q 858.00,117.90 858.00,121.90 L 858.00,179.90 Q 858.00,183.90 854.00,183.90 L 796.00,183.90 Q 792.00,183.90 792.00,179.90 L 792.00,121.90 Q 792.00,117.90 796.00,117.90 Z" />
    <path class="key-bg part-0" d="M 26.00,187.90 L 84.00,187.90 Q 88.00,187.90 88.00,191.90 L 88.00,249.90 Q 88.00,253.90 84.00,253.90 L 26.00,253.90 Q 22.00,253.90 22.00,249.90 L 22.00,191.90 Q 22.00,187.90 26.00,187.90 Z" />
    <path class="key-bg part-0" d="M 96.00,170.40 L 154.00,170.40 Q 158.00,170.40 158.00,174.40 L 158.00,232.40 Q 158.00,236.40 154.00,236.40 L 96.00,236.40 Q 92.00,236.40 92.00,232.40 L 92.00,174.40 Q 92.00,170.40 96.00,170.40 Z" />
    <path class="key-bg part-0" d="M 166.00,162.00 L 224.00,162.00 Q 228.00,162.00 228.00,166.00 L 228.00,224.00 Q 228.00,228.00 224.00,228.00 L 166.00,228.00 Q 162.00,228.00 162.00,224.00 L 162.00,166.00 Q 162.00,162.00 166.00,162.00 Z" />
    <path class="key-bg part-0" d="M 236.00,170.40 L 294.00,170.40 Q 298.00,170.40 298.00,174.40 L 298.00,232.40 Q 298.00,236.40 294.00,236.40 L 236.00,236.40 Q 232.00,236.40 232.00,232.40 L 232.00,174.40 Q 232.00,170.40 236.00,170.40 Z" />
    <path class="key-bg part-0" d="M 306.00,178.80 L 364.00,178.80 Q 368.00,178.80 368.00,182.80 L 368.00,240.80 Q 368.00,244.80 364.00,244.80 L 306.00,244.80 Q 302.00,244.80 302.00,240.80 L 302.00,182.80 Q 302.00,178.80 306.00,178.80 Z" />
    <path class="key-bg part-0" d="M 516.00,178.80 L 574.00,178.80 Q 578.00,178.80 578.00,182.80 L 578.00,240.80 Q 578.00,244.80 574.00,244.80 L 516.00,244.80 Q 512.00,244.80 512.00,240.80 L 512.00,182.80 Q 512.00,178.80 516.00,178.80 Z" />
    <path class="key-bg part-0" d="M 586.00,170.40 L 644.00,170.40 Q 648.00,170.40 648.00,174.40 L 648.00,232.40 Q 648.00,236.40 644.00,236.40 L 586.00,236.40 Q 582.00,236.40 582.00,232.40 L 582.00,174.40 Q 582.00,170.40 586.00,170.40 Z" />
    <path class="key-bg part-0" d="M 656.00,162.00 L 714.00,162.00 Q 718.00,162.00 718.00,166.00 L 718.00,224.00 Q 718.00,228.00 714.00,228.00 L 656.00,228.00 Q 652.00,228.00 652.00,224.00 L 652.00,166.00 Q 652.00,162.00 656.00,162.00 Z" />
    <path class="key-bg part-0" d="M 726.00,170.40 L 784.00,170.40 Q 788.00,170.40 788.00,174.40 L 788.00,232.40 Q 788.00,236.40 784.00,236.40 L 726.00,236.40 Q 722.00,236.40 722.00,232.40 L 722.00,174.40 Q 722.00,170.40 726.00,170.40 Z" />
    <path class="key-bg part-0" d="M 796.00,187.90 L 854.00,187.90 Q 858.00,187.90 858.00,191.90 L 858.00,249.90 Q 858.00,253.90 854.00,253.90 L 796.00,253.90 Q 792.00,253.90 792.00,249.90 L 792.00,191.90 Q 792.00,187.90 796.00,187.90 Z" />
    <path class="key-bg part-0" d="M 201.00,240.40 L 259.00,240.40 Q 263.00,240.40 263.00,244.40 L 263.00,302.40 Q 263.00,306.40 259.00,306.40 L 201.00,306.40 Q 197.00,306.40 197.00,302.40 L 197.00,244.40 Q 197.00,240.40 201.00,240.40 Z" />
    <path class="key-bg part-0" d="M 285.01,243.13 L 341.74,255.19 Q 345.65,256.02 344.82,259.94 L 332.76,316.67 Q 331.93,320.58 328.02,319.75 L 271.28,307.69 Q 267.37,306.86 268.20,302.95 L 280.26,246.21 Q 281.09,242.30 285.01,243.13 Z" />
    <path class="key-bg part-0" d="M 363.48,266.45 L 416.46,290.04 Q 420.11,291.66 418.49,295.32 L 394.90,348.30 Q 393.27,351.96 389.62,350.33 L 336.63,326.74 Q 332.98,325.11 334.60,321.46 L 358.19,268.47 Q 359.82,264.82 363.48,266.45 Z" />
    <path class="key-bg part-0" d="M 463.54,290.04 L 516.52,266.45 Q 520.18,264.82 521.81,268.47 L 545.40,321.46 Q 547.02,325.11 543.37,326.74 L 490.38,350.33 Q 486.73,351.96 485.10,348.30 L 461.51,295.32 Q 459.89,291.66 463.54,290.04 Z" />
    <path class="key-bg part-0" d="M 538.26,255.19 L 594.99,243.13 Q 598.91,242.30 599.74,246.21 L 611.80,302.95 Q 612.63,306.86 608.72,307.69 L 551.98,319.75 Q 548.07,320.58 547.24,316.67 L 535.18,259.94 Q 534.35,256.02 538.26,255.19 Z" />
    <path class="key-bg part-0" d="M 621.00,240.40 L 679.00,240.40 Q 683.00,240.40 683.00,244.40 L 683.00,302.40 Q 683.00,306.40 679.00,306.40 L 621.00,306.40 Q 617.00,306.40 617.00,302.40 L 617.00,244.40 Q 617.00,240.40 621.00,240.40 Z" />
    <path class="key-bg part-1" d="M 936.00,39.50 L 994.00,39.50 Q 998.00,39.50 998.00,43.50 L 998.00,101.50 Q 998.00,105.50 994.00,105.50 L 936.00,105.50 Q 932.00,105.50 932.00,101.50 L 932.00,43.50 Q 932.00,39.50 936.00,39.50 Z" />
    <path class="key-bg part-1" d="M 1006.00,22.00 L 1064.00,22.00 Q 1068.00,22.00 1068.00,26.00 L 1068.00,84.00 Q 1068.00,88.00 1064.00,88.00 L 1006.00,88.00 Q 1002.00,88.00 1002.00,84.00 L 1002.00,26.00 Q 1002.00,22.00 1006.00,22.00 Z" />
    <path class="key-bg part-1" d="M 1076.00,22.00 L 1134.00,22.00 Q 1138.00,22.00 1138.00,26.00 L 1138.00,84.00 Q 1138.00,88.00 1134.00,88.00 L 1076.00,88.00 Q 1072.00,88.00 1072.00,84.00 L 1072.00,26.00 Q 1072.00,22.00 1076.00,22.00 Z" />
    <path class="key-bg part-1" d="M 1146.00,39.50 L 1204.00,39.50 Q 1208.00,39.50 1208.00,43.50 L 1208.00,101.50 Q 1208.00,105.50 1204.00,105.50 L 1146.00,105.50 Q 1142.00,105.50 1142.00,101.50 L 1142.00,43.50 Q 1142.00,39.50 1146.00,39.50 Z" />
    <path class="key-bg part-1" d="M 936.00,249.50 L 994.00,249.50 Q 998.00,249.50 998.00,253.50 L 998.00,311.50 Q 998.00,315.50 994.00,315.50 L 936.00,315.50 Q 932.00,315.50 932.00,311.50 L 932.00,253.50 Q 932.00,249.50 936.00,249.50 Z" />
    <path class="key-bg part-1" d="M 1146.00,249.50 L 1204.00,249.50 Q 1208.00,249.50 1208.00,253.50 L 1208.00,311.50 Q 1208.00,315.50 1204.00,315.50 L 1146.00,315.50 Q 1142.00,315.50 1142.00,311.50 L 1142.00,253.50 Q 1142.00,249.50 1146.00,249.50 Z" />
  </g>
  <g>
    <text class="key-index" x="55.00" y="69.26" font-size="26">0</text>
    <text class="key-part part-0" x="55.00" y="96.54" font-size="18">unibody</text>
    <text class="key-index" x="125.00" y="51.76" font-size="26">1</text>
    <text class="key-part part-0" x="125.00" y="79.04" font-size="18">unibody</text>
    <text class="key-index" x="195.00" y="43.36" font-size="26">2</text>
    <text class="key-part part-0" x="195.00" y="70.64" font-size="18">unibody</text>
    <text class="key-index" x="265.00" y="51.76" font-size="26">3</text>
    <text class="key-part part-0" x="265.00" y="79.04" font-size="18">unibody</text>
    <text class="key-index" x="335.00" y="60.16" font-size="26">4</text>
    <text class="key-part part-0" x="335.00" y="87.44" font-size="18">unibody</text>
    <text class="key-index" x="545.00" y="60.16" font-size="26">5</text>
    <text class="key-part part-0" x="545.00" y="87.44" font-size="18">unibody</text>
    <text class="key-index" x="615.00" y="51.76" font-size="26">6</text>
    <text class="key-part part-0" x="615.00" y="79.04" font-size="18">unibody</text>
    <text class="key-index" x="685.00" y="43.36" font-size="26">7</text>
    <text class="key-part part-0" x="685.00" y="70.64" font-size="18">unibody</text>
    <text class="key-index" x="755.00" y="51.76" font-size="26">8</text>
    <text class="key-part part-0" x="755.00" y="79.04" font-size="18">unibody</text>
    <text class="key-index" x="825.00" y="69.26" font-size="26">9</text>
    <text class="key-part part-0" x="825.00" y="96.54" font-size="18">unibody</text>
    <text class="key-index" x="55.00" y="139.26" font-size="26">10</text>
    <text class="key-part part-0" x="55.00" y="166.54" font-size="18">unibody</text>
    <text class="key-index" x="125.00" y="121.76" font-size="26">11</text>
    <text class="key-part part-0" x="125.00" y="149.04" font-size="18">unibody</text>
    <text class="key-index" x="195.00" y="113.36" font-size="26">12</text>
    <text class="key-part part-0" x="195.00" y="140.64" font-size="18">unibody</text>
    <text class="key-index" x="265.00" y="121.76" font-size="26">13</text>
    <text class="key-part part-0" x="265.00" y="149.04" font-size="18">unibody</text>
    <text class="key-index" x="335.00" y="130.16" font-size="26">14</text>
    <text class="key-part part-0" x="335.00" y="157.44" font-size="18">unibody</text>
    <text class="key-index" x="545.00" y="130.16" font-size="26">15</text>
    <text class="key-part part-0" x="545.00" y="157.44" font-size="18">unibody</text>
    <text class="key-index" x="615.00" y="121.76" font-size="26">16</text>
    <text class="key-part part-0" x="615.00" y="149.04" font-size="18">unibody</text>
    <text class="key-index" x="685.00" y="113.36" font-size="26">17</text>
    <text class="key-part part-0" x="685.00" y="140.64" font-size="18">unibody</text>
    <text class="key-index" x="755.00" y="121.76" font-size="26">18</text>
    <text class="key-part part-0" x="755.00" y="149.04" font-size="18">unibody</text>
    <text class="key-index" x="825.00" y="139.26" font-size="26">19</text>
    <text class="key-part part-0" x="825.00" y="166.54" font-size="18">unibody</text>
    <text class="key-index" x="55.00" y="209.26" font-size="26">20</text>
    <text class="key-part part-0" x="55.00" y="236.54" font-size="18">unibody</text>
    <text class="key-index" x="125.00" y="191.76" font-size="26">21</text>
    <text class="key-part part-0" x="125.00" y="219.04" font-size="18">unibody</text>
    <text class="key-index" x="195.00" y="183.36" font-size="26">22</text>
    <text class="key-part part-0" x="195.00" y="210.64" font-size="18">unibody</text>
    <text class="key-index" x="265.00" y="191.76" font-size="26">23</text>
    <text class="key-part part-0" x="265.00" y="219.04" font-size="18">unibody</text>
    <text class="key-index" x="335.00" y="200.16" font-size="26">24</text>
    <text class="key-part part-0" x="335.00" y="227.44" font-size="18">unibody</text>
    <text class="key-index" x="545.00" y="200.16" font-size="26">25</text>
    <text class="key-part part-0" x="545.00" y="227.44" font-size="18">unibody</text>
    <text class="key-index" x="615.00" y="191.76" font-size="26">26</text>
    <text class="key-part part-0" x="615.00" y="219.04" font-size="18">unibody</text>
    <text class="key-index" x="685.00" y="183.36" font-size="26">27</text>
    <text class="key-part part-0" x="685.00" y="210.64" font-size="18">unibody</text>
    <text class="key-index" x="755.00" y="191.76" font-size="26">28</text>
    <text class="key-part part-0" x="755.00" y="219.04" font-size="18">unibody</text>
    <text class="key-index" x="825.00" y="209.26" font-size="26">29</text>
    <text class="key-part part-0" x="825.00" y="236.54" font-size="18">unibody</text>
    <text class="key-index" x="230.00" y="261.76" font-size="26">30</text>
    <text class="key-part part-0" x="230.00" y="289.04" font-size="18">unibody</text>
    <text class="key-index" x="306.51" y="269.80" font-size="26" transform="rotate(12 306.51 281.44)">31</text>
    <text class="key-part part-0" x="306.51" y="297.08" font-size="18" transform="rotate(12 306.51 281.44)">unibody</text>
    <text class="key-index" x="376.55" y="296.75" font-size="26" transform="rotate(24 376.55 308.39)">32</text>
    <text class="key-part part-0" x="376.55" y="324.03" font-size="18" transform="rotate(24 376.55 308.39)">unibody</text>
    <text class="key-index" x="503.45" y="296.75" font-size="26" transform="rotate(-24 503.45 308.39)">33</text>
    <text class="key-part part-0" x="503.45" y="324.03" font-size="18" transform="rotate(-24 503.45 308.39)">unibody</text>
    <text class="key-index" x="573.49" y="269.80" font-size="26" transform="rotate(-12 573.49 281.44)">34</text>
    <text class="key-part part-0" x="573.49" y="297.08" font-size="18" transform="rotate(-12 573.49 281.44)">unibody</text>
    <text class="key-index" x="650.00" y="261.76" font-size="26">35</text>
    <text class="key-part part-0" x="650.00" y="289.04" font-size="18">unibody</text>
    <text class="key-index" x="965.00" y="60.86" font-size="26">36</text>
    <text class="key-part part-1" x="965.00" y="88.14" font-size="18">trackball</text>
    <text class="key-index" x="1035.00" y="43.36" font-size="26">37</text>
    <text class="key-part part-1" x="1035.00" y="70.64" font-size="18">trackball</text>
    <text class="key-index" x="1105.00" y="43.36" font-size="26">38</text>
    <text class="key-part part-1" x="1105.00" y="70.64" font-size="18">trackball</text>
    <text class="key-index" x="1175.00" y="60.86" font-size="26">39</text>
    <text class="key-part part-1" x="1175.00" y="88.14" font-size="18">trackball</text>
    <text class="key-index" x="965.00" y="270.86" font-size="26">40</text>
    <text class="key-part part-1" x="965.00" y="298.14" font-size="18">trackball</text>
    <text class="key-index" x="1175.00" y="270.86" font-size="26">41</text>
    <text class="key-part part-1" x="1175.00" y="298.14" font-size="18">trackball</text>
  </g>
</svg>
